HIERARCHY
ROOT Hips
{
  OFFSET -35.4901 99.2528 17.4586
  CHANNELS 6 Xposition Yposition Zposition Zrotation Xrotation Yrotation
  JOINT LeftUpLeg
  {
    OFFSET 8.64259 1.95398 -2.38835
    CHANNELS 3 Zrotation Xrotation Yrotation
    JOINT LeftLeg
    {
      OFFSET 43.7702 0 0
      CHANNELS 3 Zrotation Xrotation Yrotation
      JOINT LeftFoot
      {
        OFFSET 40.6238 0 0
        CHANNELS 3 Zrotation Xrotation Yrotation
        JOINT LeftToeBase
        {
          OFFSET 12.7242 0 0
          CHANNELS 3 Zrotation Xrotation Yrotation
          End Site
          {
            OFFSET 0 0 0
          }
        }
      }
    }
  }
  JOINT RightUpLeg
  {
    OFFSET -8.2249 1.95398 -2.59336
    CHANNELS 3 Zrotation Xrotation Yrotation
    JOINT RightLeg
    {
      OFFSET 43.5653 0 0
      CHANNELS 3 Zrotation Xrotation Yrotation
      JOINT RightFoot
      {
        OFFSET 40.6238 0 0
        CHANNELS 3 Zrotation Xrotation Yrotation
        JOINT RightToeBase
        {
          OFFSET 12.7242 0 0
          CHANNELS 3 Zrotation Xrotation Yrotation
          End Site
          {
            OFFSET 0 0 0
          }
        }
      }
    }
  }
  JOINT Spine
  {
    OFFSET 0.165834 0.87714 6.61349
    CHANNELS 3 Zrotation Xrotation Yrotation
    JOINT Spine1
    {
      OFFSET 7.38963 1.71661e-005 0
      CHANNELS 3 Zrotation Xrotation Yrotation
      JOINT Spine2
      {
        OFFSET 11.9445 1.14441e-005 0
        CHANNELS 3 Zrotation Xrotation Yrotation
        JOINT Spine3
        {
          OFFSET 14.7254 4.19617e-005 0
          CHANNELS 3 Zrotation Xrotation Yrotation
          JOINT Spine4
          {
            OFFSET 10.9679 0 0
            CHANNELS 3 Zrotation Xrotation Yrotation
            JOINT RightShoulder
            {
              OFFSET 2.46616 -1.6653 3.69651
              CHANNELS 3 Zrotation Xrotation Yrotation
              JOINT RightArm
              {
                OFFSET 13.0012 0 0
                CHANNELS 3 Zrotation Xrotation Yrotation
                JOINT RightForeArm
                {
                  OFFSET 28.7848 1.52588e-005 0
                  CHANNELS 3 Zrotation Xrotation Yrotation
                  JOINT RightHand
                  {
                    OFFSET 26.5688 1.52588e-005 0
                    CHANNELS 3 Zrotation Xrotation Yrotation
                    End Site
                    {
                      OFFSET 0 0 0
                    }
                  }
                }
              }
            }
            JOINT LeftShoulder
            {
              OFFSET 2.38034 -1.29275 -3.7523
              CHANNELS 3 Zrotation Xrotation Yrotation
              JOINT LeftArm
              {
                OFFSET 16.3182 6.10351e-005 0
                CHANNELS 3 Zrotation Xrotation Yrotation
                JOINT LeftForeArm
                {
                  OFFSET 27.0901 0 0
                  CHANNELS 3 Zrotation Xrotation Yrotation
                  JOINT LeftHand
                  {
                    OFFSET 24.5451 1.52588e-005 0
                    CHANNELS 3 Zrotation Xrotation Yrotation
                    End Site
                    {
                      OFFSET 0 0 0
                    }
                  }
                }
              }
            }
            JOINT Neck
            {
              OFFSET 5.0226 -0.0266342 0
              CHANNELS 3 Zrotation Xrotation Yrotation
              JOINT Head
              {
                OFFSET 6.69364 2.86102e-005 0
                CHANNELS 3 Zrotation Xrotation Yrotation
                End Site
                {
                  OFFSET 0 0 0
                }
              }
            }
          }
        }
      }
    }
  }
}
MOTION
Frames:	7
Frame Time:	0.0416667
40.182 100.858 -287.258 -173.938 -83.7637 -176.962 -176.376 -6.62248 91.9919 -6.35499 3.41012 0.426704 67.7322 4.14316 -6.32981 23.4711 -7.60708 12.1119 168.93 -2.42965 84.9092 -12.404 -11.2312 -1.48923 70.2689 -4.56166 3.48571 25.5237 1.94727 -4.36011 -0.0286631 7.61579 -90.0569 11.6423 -0.0836155 -0.104628 -0.0287065 -0.0881438 -0.10085 -22.5638 -0.0483139 -0.124917 -2.55119 -0.04831 -0.124925 90.7196 -29.1916 -105.626 43.1896 -7.42605 -3.78186 -0.959763 -39.2064 -17.805 -32.4237 -1.75977 -2.0146 -83.3638 -53.6143 89.0669 -30.3686 6.62391 -19.6334 5.38838 22.907 -0.729091 -3.92667 0.00885785 -11.6866 1.63153 -1.05664 -5.84516 2.18064 0.393363 14.6237 
39.6178 101.016 -287.127 -153.669 -83.5742 -155.731 -176.333 -5.85566 92.9313 -7.65518 -0.222942 1.05317 68.9524 4.48851 -7.77008 20.2836 -5.96845 9.30299 169.594 -1.98808 86.1883 -13.1074 -12.7567 -1.33873 68.3961 -4.08176 0.767202 26.6135 -0.106178 0.526096 0.148689 7.52278 -90.0304 11.8287 0.281457 -0.0902269 0.15774 0.277215 -0.102533 -22.3776 0.295565 -0.00146258 -2.36501 0.295558 -0.0014747 89.4254 -30.9909 -107.507 42.5024 -8.23965 -2.95967 1.95166 -35.759 -17.7059 -31.3836 -2.04325 -0.546047 -83.4488 -51.9868 88.7848 -26.2879 11.427 -16.186 3.09053 14.9292 -3.71966 -2.94845 -0.0563141 -11.2378 3.69406 -0.231155 1.89329 -5.77757 -0.59001 -0.768979 
38.3834 100.886 -286.589 -148.377 -83.03 -150.809 -175.856 -5.68823 93.1354 -8.88375 -0.566335 0.937588 69.5562 5.3522 -7.26639 21.1506 -5.51357 8.69739 169.686 -1.224 86.3612 -15.7599 -12.6923 -1.35832 71.8604 -5.32305 0.460124 22.1387 -0.928232 2.98461 0.282106 7.57795 -89.9784 11.718 0.571309 -0.0168165 0.0472325 0.57002 -0.0419498 -22.4889 0.549945 0.155672 -2.47625 0.549947 0.155667 89.355 -31.2895 -107.526 42.5844 -9.49691 -2.50545 2.59585 -29.7548 -16.7656 -23.2637 0.187488 -9.63291 -83.61 -52.0475 88.5519 -23.0118 14.5155 -14.04 1.71426 9.98438 -7.15174 -2.76753 -0.064442 -10.9062 2.87963 -0.214593 1.9093 -5.03075 -0.520952 -0.135811 
36.4468 99.7232 -286.766 -153.394 -83.6066 -155.239 -174.738 1.82171 95.8313 -22.7121 1.03198 1.0008 72.4695 6.78338 -6.42029 27.2396 -6.73487 11.2849 169.776 1.1898 87.6414 -21.1274 -12.642 -0.0654904 74.82 -6.35719 -0.495534 22.2733 0.110946 0.572318 0.325999 7.67816 -90.0495 11.5177 0.625478 -0.162035 -0.153111 0.61775 -0.18941 -22.6894 0.64526 0.0334543 -2.6768 0.645253 0.0334409 89.4614 -30.0649 -107.801 43.2788 -9.7602 -2.21217 2.853 -30.6041 -17.1463 -24.1555 -0.283278 -7.39369 -83.3905 -51.6349 88.8363 -22.5338 13.2178 -13.7708 2.51942 9.3231 -7.93451 -2.41437 -0.0889082 -9.40283 3.94933 -0.0265606 3.21876 -4.95882 -0.563594 -0.835719 
34.8168 98.6254 -286.954 -175.155 -83.5197 -175.857 -175.539 12.2813 96.1453 -41.5153 4.11375 3.09752 72.6731 6.96108 -3.81029 23.7938 -6.58839 10.5854 169.774 1.8793 89.4668 -25.1787 -10.3824 1.17568 77.0812 -6.575 -0.0170728 22.3548 -0.564397 2.12057 0.349958 7.912 -90.2941 11.0512 0.560326 -0.639112 -0.619803 0.53165 -0.663159 -23.1552 0.726488 -0.441163 -3.1426 0.726488 -0.441174 89.4425 -29.0155 -108.26 42.9882 -9.23385 -2.32794 2.9485 -28.2832 -15.1152 -24.6568 -0.177178 -7.55313 -82.9957 -53.6 89.5999 -20.405 12.5221 -12.7837 3.83301 8.95115 -12.4094 -1.62121 -0.125703 -9.73249 4.22788 -0.375304 5.86634 -3.82681 -1.3579 -2.73263 
33.6893 98.7632 -285.881 168.386 -83.0395 167.175 -177.105 18.9992 93.6977 -50.2053 7.92752 4.06163 69.3635 5.70225 0.412198 22.0429 -4.09053 6.63493 169.62 0.476228 89.6195 -24.312 -6.68059 1.23948 79.9694 -6.78632 1.76252 18.3549 -0.0433439 1.32482 0.522804 8.05181 -90.3154 10.7748 0.895566 -0.71016 -0.896035 0.863433 -0.748893 -23.433 1.06759 -0.40816 -3.42035 1.06759 -0.40816 89.0738 -29.2887 -108.887 41.6267 -9.14271 -1.7838 3.93198 -26.8783 -13.4208 -26.0492 -0.0678003 -7.77803 -82.6601 -54.3574 90.1474 -20.4311 11.6216 -11.1632 5.30673 9.59293 -15.4442 -1.2749 -0.134047 -8.86849 3.29865 -1.51554 5.52327 -2.70478 -2.40048 -3.54873 
33.3355 98.8542 -284.069 168.847 -83.3316 165.511 -177.852 20.2681 89.5946 -42.2783 9.70195 1.93553 68.9225 4.96829 -4.2025 20.458 -4.6178 7.34609 168.578 -1.2453 87.3712 -23.0165 -8.2231 1.05588 79.0479 -6.53441 1.42297 23.8754 -1.32855 3.8848 0.864428 8.08175 -90.0424 10.7123 1.70196 -0.240248 -0.957598 1.68974 -0.314948 -23.5016 1.69546 0.282525 -3.48891 1.69545 0.282516 89.1519 -30.0827 -108.403 41.6528 -9.2292 -2.52787 5.23682 -27.9676 -11.9428 -25.9744 -0.310443 -6.71307 -83.2592 -53.1828 89.1777 -21.9127 10.0462 -9.09848 5.42441 9.4188 -13.9388 -1.62372 -0.12202 -9.08802 2.84356 -2.69731 3.91743 -3.07146 -3.2648 -3.67086 
